<?xml version="1.0" standalone="no"?>
<!DOCTYPE svg PUBLIC "-//W3C//DTD SVG 20010904//EN"
 "http://www.w3.org/TR/2001/REC-SVG-20010904/DTD/svg10.dtd">
<svg version="1.0" xmlns="http://www.w3.org/2000/svg"
 width="216.000000pt" height="224.000000pt" viewBox="0 0 216.000000 224.000000"
 preserveAspectRatio="xMidYMid meet">
<metadata>
Created by potrace 1.10, written by Peter Selinger 2001-2011
</metadata>
<g transform="translate(0.000000,224.000000) scale(0.100000,-0.100000)"
fill="#000000" stroke="none">
<path d="M807 2222 c-9 -2 -17 -9 -17 -16 0 -8 -3 -28 -7 -46 l-6 -33 219 7
c120 4 229 9 240 12 12 3 25 1 28 -5 5 -7 53 -11 132 -11 l124 0 0 48 0 47
-348 0 c-191 0 -356 -1 -365 -3z"/>
<path d="M1575 2123 l-50 -4 3 -49 c4 -46 6 -50 30 -50 15 0 44 -3 65 -7 l38
-6 -2 47 c-2 26 -7 49 -11 52 -5 3 -6 10 -3 15 4 5 0 8 -7 7 -7 -1 -35 -3 -63
-5z"/>
<path d="M655 2108 c-2 -7 -5 -30 -7 -50 l-4 -38 63 0 63 0 0 50 0 50 -55 0
c-36 0 -57 -4 -60 -12z"/>
<path d="M493 2003 l-53 -4 0 -48 c0 -52 10 -61 73 -61 25 0 27 3 28 43 0 23
2 50 4 60 2 9 3 16 2 15 -1 -1 -26 -3 -54 -5z"/>
<path d="M1713 2003 l-43 -4 0 -52 0 -52 65 3 c72 4 91 20 79 66 -5 22 -13 28
-49 39 -5 2 -29 2 -52 0z"/>
<path d="M332 1838 l5 -49 -40 -16 -39 -16 5 -59 5 -58 -44 0 -44 0 0 -169 c0
-92 -3 -189 -6 -215 l-7 -46 -43 0 c-23 0 -45 -3 -47 -7 -3 -5 -1 -32 2 -60
l7 -53 -38 0 -38 0 0 -170 c0 -93 3 -170 8 -170 4 0 22 4 40 9 l32 10 0 -56 0
-55 44 4 45 3 -2 -35 -2 -35 48 3 47 4 0 -106 c0 -64 4 -106 10 -106 6 0 10
-17 11 -37 2 -58 13 -88 34 -91 65 -10 66 -10 59 -49 -7 -35 -6 -36 20 -29 84
20 76 24 69 -33 -3 -28 -2 -51 3 -52 5 0 37 -1 72 -2 l62 -2 -2 30 c-1 17 1
36 5 42 5 7 -12 13 -51 18 -78 9 -89 16 -74 50 21 46 16 62 -18 57 -17 -2 -37
1 -45 8 -12 10 -15 10 -15 0 0 -18 -13 -4 -17 18 -2 9 -8 67 -13 127 -6 61
-13 116 -15 123 -3 8 6 12 28 12 32 0 32 1 29 40 l-4 40 40 0 c25 0 49 8 66
21 l26 20 0 -65 0 -66 94 0 94 0 4 60 3 60 -50 1 c-27 0 -68 3 -90 7 l-39 7 3
45 c1 25 8 77 15 115 l11 70 60 3 60 3 -3 -55 c-3 -50 -1 -56 27 -82 23 -20
31 -36 31 -61 0 -29 3 -33 25 -33 21 0 25 -5 25 -30 0 -30 0 -30 59 -30 58 0
60 -1 66 -30 6 -27 10 -30 48 -30 23 0 72 -3 108 -6 l66 -7 10 39 c8 37 11 39
50 42 l42 3 7 60 7 59 42 0 42 0 -5 75 -5 75 151 0 151 0 4 -27 c3 -23 4 -22
6 8 1 37 1 37 56 44 l56 7 -7 34 -6 34 106 0 106 0 0 -41 0 -41 34 6 c22 4 37
2 44 -7 12 -14 11 -191 0 -203 -4 -3 -26 -3 -49 1 l-42 7 7 69 c10 115 9 117
-91 118 -47 1 -89 3 -93 6 -3 2 -6 -15 -6 -38 l1 -42 -45 -3 -46 -3 4 -36 c3
-27 0 -40 -13 -49 -14 -11 -18 -29 -19 -89 l-1 -75 60 0 c33 0 77 3 99 7 38 6
38 6 32 45 -6 35 -4 39 20 48 14 6 45 10 69 10 44 0 55 -10 55 -50 0 -13 10
-19 47 -23 62 -7 73 -1 73 38 0 19 6 40 14 47 9 10 15 51 17 138 l4 125 -37 3
c-44 4 -42 0 -23 72 11 41 15 120 16 303 1 137 0 250 -2 252 -2 1 -29 5 -59 6
l-55 4 0 -257 0 -258 -102 0 c-107 0 -133 -5 -133 -24 0 -12 -95 -13 -172 -1
l-37 5 6 -35 6 -35 -107 -1 c-58 -1 -112 -2 -118 -3 -14 -1 -15 34 -2 73 7 24
7 24 -44 17 l-52 -7 0 51 0 50 -50 0 -51 0 7 35 6 35 -131 0 c-72 0 -134 0
-138 0 -5 0 -9 -18 -11 -40 l-3 -40 -50 0 -49 0 0 -40 c0 -36 -2 -40 -25 -40
-23 0 -25 -4 -25 -45 l0 -45 -70 0 -70 0 0 45 c0 31 -5 47 -17 54 -14 7 -15
12 -4 25 11 13 7 17 -31 26 -57 15 -90 43 -86 72 3 22 0 23 -79 26 l-82 3 0
184 0 185 40 0 41 0 -4 65 -3 64 35 3 c35 3 35 3 35 53 l0 50 -49 1 -48 2 4
-50z m808 -675 l0 -33 -125 0 c-93 0 -125 3 -125 13 0 6 -3 22 -6 34 l-6 23
131 -3 131 -2 0 -32z m-807 16 l88 2 -3 -28 -3 -28 -78 0 -78 0 3 -72 c3 -69
4 -73 30 -78 23 -5 27 -12 30 -53 3 -26 1 -55 -4 -65 -11 -21 -3 -24 70 -30
l52 -4 0 118 c0 94 3 121 16 133 28 29 44 20 45 -26 0 -24 6 -85 13 -135 l12
-93 -38 0 -37 0 14 -34 c16 -37 9 -51 -15 -35 -25 15 -30 10 -30 -31 l0 -41
-105 3 -105 3 0 41 c0 41 -1 42 -40 48 -56 9 -63 29 -68 183 l-4 132 43 3 44
3 3 48 c3 48 4 49 30 42 15 -4 67 -6 115 -6z m580 -236 l10 -113 124 1 123 0
0 68 c0 68 0 69 -29 74 -32 7 -46 34 -36 67 4 13 25 25 60 36 30 10 57 15 60
12 3 -2 1 -26 -4 -52 l-9 -48 30 6 29 6 -2 -98 -2 -97 -46 -5 -46 -5 -3 -57
-3 -58 -107 0 c-95 0 -109 2 -119 19 -7 11 -22 21 -35 23 -18 2 -24 12 -31 48
-10 50 -22 62 -54 54 -21 -6 -21 -4 -21 135 l0 140 22 -14 c19 -12 23 -11 41
11 l20 23 9 -32 c4 -17 13 -83 19 -144z"/>
<path d="M1842 1883 c-27 -5 -44 -35 -40 -71 3 -24 8 -28 51 -33 27 -3 50 -3
52 1 2 3 5 28 6 55 3 47 2 50 -21 51 -14 1 -35 0 -48 -3z"/>
<path d="M1907 1763 c-2 -4 -4 -33 -3 -63 l1 -55 40 4 c22 1 41 4 42 5 1 1 3
26 5 56 l3 55 -42 3 c-22 2 -43 -1 -46 -5z"/>
<path d="M1563 820 c0 -30 2 -43 4 -27 2 15 2 39 0 55 -2 15 -4 2 -4 -28z"/>
<path d="M1884 576 l7 -46 -115 0 c-64 0 -119 0 -123 -1 -5 0 -10 10 -13 23
-4 16 -8 19 -14 10 -4 -7 -29 -12 -62 -12 l-54 0 0 -60 0 -60 -60 7 -60 6 0
-56 0 -56 -37 -6 c-72 -12 -68 -15 -68 47 0 32 -3 58 -7 58 -5 0 -35 0 -68 0
l-60 0 0 -70 c0 -67 1 -70 19 -60 11 5 39 10 62 10 l42 0 -7 -38 c-3 -20 -6
-43 -6 -49 0 -9 -17 -13 -49 -13 -44 0 -50 3 -53 23 -2 12 -7 -9 -12 -48 l-8
-70 -48 3 c-74 6 -78 47 -5 55 35 3 33 4 -14 5 l-54 2 5 -45 6 -45 -204 0
c-197 0 -203 -1 -209 -21 -13 -41 9 -47 206 -54 l186 -7 16 33 c24 50 46 61
108 49 28 -6 73 -10 99 -10 53 0 60 9 60 81 l0 37 63 6 c34 4 70 4 80 0 10 -3
28 1 42 10 21 14 25 24 25 64 l0 48 64 0 c35 -1 67 1 70 4 3 3 7 28 9 54 l4
49 72 -2 c39 -1 96 1 126 4 l55 7 0 43 0 42 45 6 c55 6 56 7 58 49 l2 33 -64
3 -63 3 6 -45z"/>
<path d="M1390 560 c-9 -5 -30 -7 -48 -6 -48 3 -24 -10 31 -18 37 -4 47 -3 47
9 0 19 -12 25 -30 15z"/>
<path d="M481 431 c-12 -8 -12 -13 2 -34 16 -24 16 -24 239 -29 123 -3 240 -3
261 0 35 4 37 6 37 38 l0 34 -262 0 c-145 0 -269 -4 -277 -9z"/>
</g>
</svg>
